<?xml version="1.0" standalone="no"?>
<!DOCTYPE svg PUBLIC "-//W3C//DTD SVG 20010904//EN"
 "http://www.w3.org/TR/2001/REC-SVG-20010904/DTD/svg10.dtd">
<svg version="1.0" xmlns="http://www.w3.org/2000/svg"
 width="500.000000pt" height="500.000000pt" viewBox="0 0 500.000000 500.000000"
 preserveAspectRatio="xMidYMid meet">
<metadata>
Created by potrace 1.14, written by Peter Selinger 2001-2017
</metadata>
<g transform="translate(0.000000,500.000000) scale(0.100000,-0.100000)"
fill="#000000" stroke="none">
<path d="M2462 3684 c-33 -23 -31 -88 4 -111 33 -21 53 -10 78 45 13 27 26 42
38 42 23 0 25 -42 3 -60 -21 -18 -19 -41 3 -33 47 16 59 91 18 118 -33 22 -61
7 -81 -43 -25 -59 -55 -66 -55 -11 0 17 6 32 15 35 15 6 21 34 7 34 -4 0 -18
-7 -30 -16z"/>
<path d="M2456 3514 c-33 -32 -9 -114 32 -114 18 0 14 27 -4 34 -10 4 -14 15
-12 33 3 27 5 28 63 28 58 0 60 -1 63 -28 2 -18 -2 -29 -12 -33 -20 -8 -21
-34 -2 -34 21 0 46 39 46 71 0 42 -28 59 -98 59 -42 0 -65 -5 -76 -16z"/>
<path d="M1515 3464 c-280 -59 -430 -230 -412 -471 12 -155 106 -277 282 -365
28 -14 120 -51 205 -83 264 -99 331 -141 346 -222 10 -53 -21 -120 -74 -157
-38 -27 -52 -30 -136 -34 -115 -5 -186 14 -246 65 -50 43 -68 76 -78 145 l-7
53 -150 0 -150 0 -3 -65 c-6 -123 53 -263 144 -339 52 -42 163 -97 244 -118
102 -27 311 -24 417 6 124 35 219 97 284 185 l29 39 0 209 0 208 -64 64 c-76
77 -137 108 -402 206 -281 105 -316 130 -322 233 -4 76 17 116 80 149 36 18
59 22 138 23 121 0 172 -18 233 -84 44 -47 52 -68 59 -146 l3 -30 138 -3 137
-3 0 127 c0 125 0 128 -31 176 -68 105 -199 189 -346 222 -66 15 -264 21 -318
10z"/>
<path d="M2440 3366 c0 -9 7 -19 15 -22 10 -4 15 -20 15 -44 0 -24 -5 -40 -15
-44 -8 -3 -15 -13 -15 -22 0 -9 6 -14 13 -12 6 3 49 17 95 32 63 21 82 32 82
46 0 14 -19 25 -82 46 -46 15 -89 29 -95 32 -7 2 -13 -3 -13 -12z m140 -66 c0
-3 -18 -11 -40 -17 -39 -10 -40 -10 -40 17 0 27 1 27 40 17 22 -6 40 -14 40
-17z"/>
<path d="M2440 3130 c0 -47 3 -60 15 -60 11 0 15 12 15 45 l0 45 80 0 c64 0
80 3 80 15 0 12 -17 15 -95 15 l-95 0 0 -60z"/>
<path d="M2440 2975 c0 -51 3 -65 15 -65 11 0 15 12 15 50 0 47 2 50 25 50 22
0 25 -4 25 -35 0 -24 5 -35 15 -35 10 0 15 11 15 35 0 31 3 35 25 35 23 0 25
-3 25 -50 0 -38 4 -50 15 -50 12 0 15 14 15 65 l0 65 -95 0 -95 0 0 -65z"/>
<path d="M2440 2832 c0 -73 15 -87 95 -87 80 0 95 14 95 87 l0 48 -95 0 -95 0
0 -48z m158 -14 l-3 -33 -60 0 -60 0 -3 33 -3 32 66 0 66 0 -3 -32z"/>
<path d="M2440 2595 c0 -51 3 -65 15 -65 11 0 15 12 15 50 0 47 2 50 25 50 22
0 25 -4 25 -35 0 -24 5 -35 15 -35 10 0 15 11 15 35 0 31 3 35 25 35 23 0 25
-3 25 -50 0 -38 4 -50 15 -50 12 0 15 14 15 65 l0 65 -95 0 -95 0 0 -65z"/>
<path d="M2850 1835 l0 -795 473 0 c355 0 476 3 485 12 14 14 17 225 4 245 -6
10 -99 13 -388 15 l-379 3 -3 193 -2 192 240 0 c147 0 249 4 261 10 17 10 19
22 19 128 0 79 -4 122 -12 130 -9 9 -80 12 -260 12 l-248 0 0 185 0 185 380 0
c365 0 380 1 390 19 5 11 10 67 10 125 0 82 -3 108 -16 120 -14 14 -71 16
-485 16 l-469 0 0 -795z"/>
<path d="M2530 2481 c-117 -38 -116 -54 5 -92 49 -15 91 -26 93 -24 14 14 -15
34 -75 50 l-68 19 70 21 c47 14 71 27 73 38 4 21 6 21 -98 -12z"/>
<path d="M2480 2333 c-44 -16 -55 -91 -18 -117 34 -24 123 -21 148 4 20 20 26
65 12 86 -19 29 -96 44 -142 27z m101 -33 c23 -13 25 -55 3 -64 -9 -3 -35 -6
-59 -6 -32 0 -47 5 -53 18 -10 19 -5 43 12 54 16 11 74 10 97 -2z"/>
<path d="M2447 2164 c-4 -4 -7 -34 -7 -66 0 -45 3 -58 15 -58 11 0 15 12 15
45 l0 45 81 0 c71 0 80 2 77 18 -3 14 -17 17 -89 20 -47 1 -88 0 -92 -4z"/>
<path d="M2457 1992 c-22 -25 -21 -75 1 -95 25 -23 172 -25 172 -2 0 11 -18
15 -77 17 l-78 3 0 30 0 30 78 3 c59 2 77 6 77 17 0 24 -151 21 -173 -3z"/>
<path d="M2600 1825 c0 -25 -1 -25 -81 -25 -71 0 -80 -2 -77 -17 3 -15 16 -18
81 -21 74 -3 77 -4 77 -27 0 -16 6 -25 15 -25 12 0 15 14 15 70 0 56 -3 70
-15 70 -9 0 -15 -9 -15 -25z"/>
<path d="M2440 1665 c0 -12 17 -15 95 -15 78 0 95 3 95 15 0 12 -17 15 -95 15
-78 0 -95 -3 -95 -15z"/>
<path d="M2480 1613 c-44 -16 -55 -91 -18 -117 34 -24 123 -21 148 4 20 20 26
65 12 86 -19 29 -96 44 -142 27z m101 -33 c23 -13 25 -55 3 -64 -9 -3 -35 -6
-59 -6 -32 0 -47 5 -53 18 -10 19 -5 43 12 54 16 11 74 10 97 -2z"/>
<path d="M2447 1444 c-21 -21 -4 -33 51 -36 l57 -3 -57 -35 c-83 -50 -77 -60
37 -60 78 0 95 3 95 15 0 12 -14 15 -62 15 l-63 0 63 37 c87 52 81 67 -29 71
-47 1 -88 0 -92 -4z"/>
</g>
</svg>
